# xmcd
#
# Track frame offsets:
#	150
#	14850
#	15375
#	30000
#	48075
#	66300
#	98175
#	117000
#	128625
#	141075
#	158400
#	185250
#
# Disc length: 2631 seconds
#
# Revision: 1
# Processed by: cddbd v1.4PL0 Copyright (c) Steve Scherf et al.
# Submitted via: audiograbber 1.81.03
#
DISCID=8a0a450c
DTITLE=Denny Freeman - Out Of The Blue
DYEAR=1988
DGENRE=Blues
TTITLE0=Z
TTITLE1=Dive Bomber
TTITLE2=Delta
TTITLE3=Blues Island
TTITLE4=Acapulco Rain
TTITLE5=Testifyin'
TTITLE6=Crusading
TTITLE7=Etouffée
TTITLE8=The Lost Incas
TTITLE9=My Dominique
TTITLE10=Soul Street
TTITLE11=Takin' Off
EXTD=
EXTT0=
EXTT1=
EXTT2=
EXTT3=
EXTT4=
EXTT5=
EXTT6=
EXTT7=
EXTT8=
EXTT9=
EXTT10=
EXTT11=
PLAYORDER=
